<svg id="aw" xmlns="http://www.w3.org/2000/svg" viewBox="0 0 300 300"><defs><style>.cls-1{fill:#d8a107;}.cls-2{fill:#ffd31f;}</style></defs><title>CC_icons_v005</title><path class="cls-1" d="M231,151.73a61.18,61.18,0,0,1,29.68-52.4,43.31,43.31,0,0,1-18.31,4c-24,0-43.53-20.28-43.53-44.28a41.17,41.17,0,0,1,.31-5h-.1a43.68,43.68,0,0,1-78.21,20.09A61.14,61.14,0,0,1,69,150a61.1,61.1,0,0,1,51.58,76.72,43.52,43.52,0,0,1,77.6,11.38,43.54,43.54,0,0,1,60.27-35.38A61.15,61.15,0,0,1,231,151.73Z"/><path class="cls-2" d="M189,265.24a52.6,52.6,0,0,0-2.79-9.65,42.43,42.43,0,0,0-4.89-8.34,36.31,36.31,0,0,0-14.88-11.39,32,32,0,0,0-9.15-2.29c-.79,0-1.58-.2-2.37-.19h-2.39a32.11,32.11,0,0,0-4.78.47,37.86,37.86,0,0,0-17.75,8.4l-.54-.49a32,32,0,0,1,17.27-12.23,33.82,33.82,0,0,1,10.94-1.29l1.39.06,1.38.18c.92.15,1.85.2,2.75.43l2.71.68c.9.25,1.76.6,2.64.91a34.58,34.58,0,0,1,9.63,5.57,35.14,35.14,0,0,1,7.3,8.33,34.3,34.3,0,0,1,4.07,10.16,30.46,30.46,0,0,1,.19,10.68Z"/><path class="cls-2" d="M217.28,262.11a30.07,30.07,0,0,1-2.09-10.5,34.26,34.26,0,0,1,1.87-10.84,35.14,35.14,0,0,1,5.46-9.69,34.7,34.7,0,0,1,8.34-7.46c.8-.48,1.58-1,2.41-1.43L235.8,221c.84-.4,1.75-.65,2.63-1l1.32-.46,1.36-.34a34,34,0,0,1,11-.93,31.76,31.76,0,0,1,19.39,8.61l-.44.6A38.12,38.12,0,0,0,252,223a34.16,34.16,0,0,0-4.75.52l-2.33.49c-.77.15-1.51.46-2.27.68a31.61,31.61,0,0,0-8.43,4.08A36.57,36.57,0,0,0,222,242.85a42.72,42.72,0,0,0-3.14,9.1,54.27,54.27,0,0,0-.88,10Z"/><path class="cls-2" d="M101.1,67.23a51,51,0,0,1,3.53,16.07,55.07,55.07,0,0,1-2.06,16.61,55.81,55.81,0,0,1-7.33,15.19,53.81,53.81,0,0,1-11.71,12.2c-1.15.82-2.26,1.71-3.46,2.46l-3.66,2.16a16,16,0,0,1-1.9,1l-1.93.87-1.93.87-2,.68a52.6,52.6,0,0,1-16.54,3A51.19,51.19,0,0,1,21,128.53l.6-1a56.76,56.76,0,0,0,30.27,6,49.05,49.05,0,0,0,7.56-1.24l3.69-1a12.75,12.75,0,0,0,1.8-.62l1.78-.68a49.63,49.63,0,0,0,13.14-7.49,18.73,18.73,0,0,0,1.5-1.16l1.4-1.28a28.15,28.15,0,0,0,2.72-2.63l2.57-2.8,2.3-3a58.8,58.8,0,0,0,7.17-13.38,63.12,63.12,0,0,0,3.32-15A72.13,72.13,0,0,0,100,67.56Z"/><path class="cls-2" d="M100,233.37a72.21,72.21,0,0,0,.76-15.69,62.92,62.92,0,0,0-3.35-15,58.59,58.59,0,0,0-7.17-13.35l-2.3-3-2.55-2.79a30.66,30.66,0,0,0-2.72-2.63l-1.4-1.28c-.46-.43-1-.77-1.49-1.16A49.7,49.7,0,0,0,66.66,171l-1.78-.68a14.16,14.16,0,0,0-1.8-.62l-3.67-1a49.14,49.14,0,0,0-7.55-1.25,57,57,0,0,0-30.27,5.9l-.6-1a51.12,51.12,0,0,1,31.12-9.82,52.71,52.71,0,0,1,16.56,3l2,.68,1.93.87,1.94.88a15.31,15.31,0,0,1,1.9.95l3.67,2.15c1.19.76,2.31,1.65,3.46,2.47a53.41,53.41,0,0,1,11.73,12.23A55.56,55.56,0,0,1,102.65,201a54.9,54.9,0,0,1,2,16.63,50.71,50.71,0,0,1-3.59,16.07Z"/><path class="cls-2" d="M295,151c-11.61.73-23.23,1.19-34.84,1.56-5.81.2-11.61.37-17.42.48s-11.61.29-17.42.34c-23.22.42-46.45.33-69.68.26s-46.45-.35-69.67-.73-46.45-1-69.68-1.91v-1c23.23-1,46.45-1.46,69.68-1.9s46.45-.65,69.67-.73,46.46-.17,69.68.25c5.81.06,11.62.21,17.42.34s11.61.28,17.42.48c11.61.37,23.23.84,34.84,1.56Z"/><path class="cls-2" d="M188.66,33.1a30.34,30.34,0,0,1,.3,10.68,34.22,34.22,0,0,1-3.59,10.33,35.16,35.16,0,0,1-6.9,8.66,34.51,34.51,0,0,1-9.35,6c-.86.35-1.71.74-2.59,1l-2.68.81c-.89.27-1.82.37-2.73.56l-1.36.25-1.39.11a33.78,33.78,0,0,1-11-.76,32,32,0,0,1-17.82-11.39l.52-.52a37.79,37.79,0,0,0,18.11,7.57,33.65,33.65,0,0,0,4.8.25l2.39-.11c.8,0,1.58-.21,2.36-.3a32,32,0,0,0,9-2.71,36.22,36.22,0,0,0,14.34-12.09,42.19,42.19,0,0,0,4.48-8.56,51.72,51.72,0,0,0,2.32-9.78Z"/><path class="cls-2" d="M220.08,40.34a36,36,0,0,0-.35,10.34,33.71,33.71,0,0,0,2.8,9.73A31.68,31.68,0,0,0,228,68.65,36.29,36.29,0,0,0,231.59,72l2,1.43c.64.49,1.37.84,2,1.27h0a6.53,6.53,0,0,1,.91.68l1,.63c.64.4,1.24.9,1.92,1.24l2,1.09c.68.36,1.41.61,2.12.92l1.08.45,1.12.33c.75.21,1.49.46,2.25.65a31.89,31.89,0,0,0,4.68.74,32.88,32.88,0,0,0,9.57-.62,33.74,33.74,0,0,0,9.19-3.44l.4.61a35.24,35.24,0,0,1-19.18,7.13,36.49,36.49,0,0,1-5.33-.05c-.88-.09-1.76-.24-2.65-.36l-1.34-.19L242,84.19a32.86,32.86,0,0,1-10.07-4.09h0c-.75-.62-1.54-1.17-2.23-1.84l-2.07-2a39.06,39.06,0,0,1-3.58-4.46,35.64,35.64,0,0,1-4.92-10.09,36.67,36.67,0,0,1-1.59-10.91,38,38,0,0,1,1.81-10.64Z"/><path class="cls-2" d="M287.13,202.37A51,51,0,0,1,272.39,195a54.94,54.94,0,0,1-11.63-12,55.59,55.59,0,0,1-7.22-15.25A53.83,53.83,0,0,1,251.41,151c.08-1.42.09-2.84.26-4.24l.62-4.21a15,15,0,0,1,.46-2.07l.53-2.06.54-2.05.73-2a52.54,52.54,0,0,1,8.09-14.74,51.19,51.19,0,0,1,27.15-18.06l.39,1.08a56.86,56.86,0,0,0-23.65,19.81,47.68,47.68,0,0,0-3.78,6.66l-1.54,3.49a14.17,14.17,0,0,0-.65,1.79l-.59,1.81a49.84,49.84,0,0,0-2.43,14.92c0,.63-.08,1.26,0,1.89l.11,1.89a29.67,29.67,0,0,0,.34,3.77l.56,3.75.9,3.69a59,59,0,0,0,5.9,14,62.66,62.66,0,0,0,9.55,12,72.36,72.36,0,0,0,12.7,9.24Z"/></svg>