<svg id="aw" xmlns="http://www.w3.org/2000/svg" viewBox="0 0 300 300"><defs><style>.cls-1{fill:#ea0f6c;}</style></defs><title>CC_icons_v005</title><path class="cls-1" d="M259.72,213.42a12.1,12.1,0,0,0-1.21.06,54.44,54.44,0,0,0,8.59-25.39c1-12.07-2.38-30.09-16-37.76,13.6-7.66,16.95-25.68,16-37.76a53.69,53.69,0,0,0-12.48-30.48A12.2,12.2,0,1,0,247.51,71a12.24,12.24,0,0,0,1,4.81c-10.62-9.42-25.18-15.75-42.2-17.89a20.95,20.95,0,1,0-14.13-.8c-1,0-2.09,0-3.15.07a83.24,83.24,0,0,0-49.7,19,12.24,12.24,0,1,0-7,6.37,91.7,91.7,0,0,0-24,42.07,31.2,31.2,0,0,0-19.08-6.5,31.86,31.86,0,0,0-31.28,27.1A10.33,10.33,0,0,0,39,149l-10.61.47a3.85,3.85,0,0,0-7.56.34l-12.16.54v.1l12.17.54a3.85,3.85,0,0,0,7.54.33l10.51.47A10.34,10.34,0,0,0,58,156.07,31.86,31.86,0,0,0,89.2,182.6a31.18,31.18,0,0,0,19.28-6.67c3.69,13.44,11.3,26.56,21.48,37.62a11.93,11.93,0,0,0-1.7-.13,12.22,12.22,0,1,0,12,9.86c13.95,11.48,31,19.21,48.78,20.19,1.08.06,2.15.09,3.22.11a21,21,0,1,0,14.45-.66c16.38-2,30.41-8,40.84-16.94a12.2,12.2,0,1,0,12.19-12.56Z"/></svg>