<svg id="aw" xmlns="http://www.w3.org/2000/svg" viewBox="0 0 300 300"><defs><style>.cls-1{fill:#1035e8;}</style></defs><title>CC_icons_v005</title><path class="cls-1" d="M239.62,150.41a42.66,42.66,0,0,1-85.31,0c0-.13,0-.25,0-.37H130.09c0,.12,0,.24,0,.37a64.59,64.59,0,0,0,64.78,64.4c16.41,0,32.79-7.19,40.27-17.07,16.72-22.07,8.73-47.33,8.73-47.33l.2-.37h-4.45C239.62,150.16,239.62,150.28,239.62,150.41Z"/><path class="cls-1" d="M92.9,150.06a6.35,6.35,0,0,1-12.69,0v0h-10A16.39,16.39,0,0,0,103,150h-10Z"/><path class="cls-1" d="M205.35,154.84a9,9,0,0,1-12.19,3.25,8.83,8.83,0,0,1-4.45-8.05h-14.3c0,.12,0,.24,0,.37a23.22,23.22,0,0,0,46.43,0c0-.13,0-.25,0-.37H206.53A8.76,8.76,0,0,1,205.35,154.84Z"/><path class="cls-1" d="M265,187.57a53.94,53.94,0,0,1-8.59,25.25,12.14,12.14,0,1,1-11,12.43c-10.44,8.9-24.48,14.9-40.87,16.84a21,21,0,1,1-14.45.66c-1.07,0-2.14-.05-3.22-.11-17.81-1-34.85-8.66-48.8-20.08a12.89,12.89,0,0,1,.23,2.34,12.22,12.22,0,1,1-12.22-12.14,11.93,11.93,0,0,1,1.7.13c-10.18-11-17.79-24-21.49-37.41A31.33,31.33,0,0,1,87,182.11a31.81,31.81,0,0,1-31.19-26.38,10.36,10.36,0,0,1-19.15-4.29L26.19,151a3.86,3.86,0,0,1-7.55-.34l-12.17-.53V150H0V300H299.81V150H249.06C262.64,157.67,266,175.57,265,187.57Z"/><path class="cls-1" d="M21,150.06a1.32,1.32,0,0,0,2.63,0v0H21Z"/><circle class="cls-1" cx="197.98" cy="261.97" r="5.36"/><path class="cls-1" d="M202.08,142.73A9,9,0,0,0,189.89,146a8.68,8.68,0,0,0-1.18,4.07h17.82A8.86,8.86,0,0,0,202.08,142.73Z"/><path class="cls-1" d="M197.62,127.33A23.14,23.14,0,0,1,220.82,150h18.79a42.65,42.65,0,0,0-85.29,0h20.09A23.14,23.14,0,0,1,197.62,127.33Z"/><path class="cls-1" d="M86.56,143.71A6.35,6.35,0,0,0,80.21,150H92.9A6.34,6.34,0,0,0,86.56,143.71Z"/><path class="cls-1" d="M22.35,148.74a1.33,1.33,0,0,1,1.32,1.3h46.5A16.39,16.39,0,0,1,103,150h27.14a64.59,64.59,0,0,1,64.77-64c20.46,0,37.24,10.95,43.41,20.15,15.28,22.79,7.17,41.12,5.79,43.88h5l0,0c13.6-7.62,17-25.54,16-37.55a53.15,53.15,0,0,0-12.49-30.31,12.31,12.31,0,0,0,5.11,1.12,12.14,12.14,0,1,0-12.21-12.14,11.92,11.92,0,0,0,1,4.78c-10.63-9.36-25.19-15.66-42.22-17.78a21,21,0,1,0-14.14-.8c-1,0-2.09,0-3.15.06a83.63,83.63,0,0,0-49.72,18.86,12,12,0,0,0,1.15-5.12,12.25,12.25,0,1,0-8.2,11.45,91.13,91.13,0,0,0-24,41.85A31.31,31.31,0,0,0,87,118a31.81,31.81,0,0,0-31.29,26.95,10.36,10.36,0,0,0-18.94,3.75l-10.61.47a3.86,3.86,0,0,0-7.56.33L6.47,150v0H21A1.32,1.32,0,0,1,22.35,148.74ZM198,32.79a5.36,5.36,0,1,1-5.36,5.36A5.36,5.36,0,0,1,198,32.79Z"/></svg>