<svg id="aw" xmlns="http://www.w3.org/2000/svg" viewBox="0 0 300 300"><defs><style>.cls-1{fill:#7772dd;}.cls-2{fill:#5e37bc;}.cls-3{fill:#45199b;}.cls-4{fill:#b9aefc;}</style></defs><title>CC_icons_v005</title><path class="cls-1" d="M134,98.92c22.45-17,38.19-36.52,52.13-58.58C196.75,23.51,200,8.73,200,8.73s13.34,53.8,42.25,94.19c28.26,39.5,50.21,47,50.21,47s-22.48,6.84-52,43.25c-28.08,34.6-40.55,102-40.55,102s-1.78-9.12-9.52-25.81c-13.61-29.35-37.4-52.9-53.09-66.32C119,187.42,78.74,164.83,45,156.23A230.78,230.78,0,0,0,10.25,150,237.82,237.82,0,0,0,45,143.44C72.38,136,110.59,116.67,134,98.92Z"/><path class="cls-2" d="M151.46,108.49c9.68-9.29,22.89-24.2,30.35-39.52C195.92,40,200,21.23,200,21.23S212.42,89.71,235.65,118C260.19,147.84,285.27,150,285.27,150s-25.37.12-49.37,25.05C205,207.18,200,285.39,200,285.39a99.84,99.84,0,0,0-1.84-14.8c-5.22-28.17-22-56.31-46.7-80.13-15-14.52-37.28-23.82-59.13-29.77-36-9.8-70.88-10.69-70.88-10.69s32.71.16,74.9-11.71C113.88,133.37,142.47,117.12,151.46,108.49Z"/><path class="cls-3" d="M174.64,127.79C196,106.48,200.29,44.44,200.05,50c0,0,5.88,56.27,22.31,77.39s50.17,22.65,50.17,22.65-32.19,4-49.78,22.33C207.84,187.9,200,250.1,200,250.1s-4.46-54-22.25-74.28C156.7,151.76,50,150.05,50,150.05S153.07,149.36,174.64,127.79Z"/><polygon class="cls-4" points="205.03 144.61 250.03 150.05 205.03 154.67 200.02 200.07 194.98 154.66 150.01 150.05 194.98 144.62 200.05 99.64 205.03 144.61"/></svg>